<mxfile host="app.diagrams.net" agent="Mozilla/5.0 (Windows NT 10.0; Win64; x64) AppleWebKit/537.36 (KHTML, like Gecko) Chrome/136.0.0.0 Safari/537.36 Edg/136.0.0.0" version="27.0.1">
  <diagram name="第 1 页" id="hY4rLlNHpxg_G9E8vtzP">
    <mxGraphModel dx="695" dy="458" grid="1" gridSize="10" guides="1" tooltips="1" connect="1" arrows="1" fold="1" page="1" pageScale="1" pageWidth="827" pageHeight="1169" math="0" shadow="0">
      <root>
        <mxCell id="0" />
        <mxCell id="1" parent="0" />
        <mxCell id="Kj1l3_5Fq6EtQ0LLu0_2-2" value="&lt;b&gt;&lt;font style=&quot;font-size: 15px;&quot;&gt;小程序基础开发&lt;/font&gt;&lt;/b&gt;" style="rounded=0;whiteSpace=wrap;html=1;strokeWidth=3;" vertex="1" parent="1">
          <mxGeometry x="280" y="160" width="120" height="40" as="geometry" />
        </mxCell>
        <mxCell id="Kj1l3_5Fq6EtQ0LLu0_2-3" value="" style="endArrow=classic;html=1;rounded=1;exitX=0.5;exitY=1;exitDx=0;exitDy=0;strokeColor=none;curved=0;strokeWidth=3;" edge="1" parent="1" source="Kj1l3_5Fq6EtQ0LLu0_2-2">
          <mxGeometry width="50" height="50" relative="1" as="geometry">
            <mxPoint x="320" y="220" as="sourcePoint" />
            <mxPoint x="340" y="240" as="targetPoint" />
          </mxGeometry>
        </mxCell>
        <mxCell id="Kj1l3_5Fq6EtQ0LLu0_2-5" value="" style="endArrow=classic;html=1;rounded=0;exitX=0.417;exitY=1;exitDx=0;exitDy=0;exitPerimeter=0;strokeWidth=3;" edge="1" parent="1">
          <mxGeometry width="50" height="50" relative="1" as="geometry">
            <mxPoint x="339.53999999999996" y="200" as="sourcePoint" />
            <mxPoint x="340" y="240" as="targetPoint" />
          </mxGeometry>
        </mxCell>
        <mxCell id="Kj1l3_5Fq6EtQ0LLu0_2-6" value="&lt;font style=&quot;font-size: 15px;&quot;&gt;&lt;b&gt;AI助手开发&lt;/b&gt;&lt;/font&gt;" style="rounded=0;whiteSpace=wrap;html=1;strokeWidth=3;" vertex="1" parent="1">
          <mxGeometry x="280" y="360" width="120" height="40" as="geometry" />
        </mxCell>
        <mxCell id="Kj1l3_5Fq6EtQ0LLu0_2-9" value="" style="endArrow=classic;html=1;rounded=0;exitX=0.5;exitY=1;exitDx=0;exitDy=0;strokeWidth=3;" edge="1" parent="1" source="Kj1l3_5Fq6EtQ0LLu0_2-6">
          <mxGeometry width="50" height="50" relative="1" as="geometry">
            <mxPoint x="330" y="410" as="sourcePoint" />
            <mxPoint x="340" y="440" as="targetPoint" />
          </mxGeometry>
        </mxCell>
        <mxCell id="Kj1l3_5Fq6EtQ0LLu0_2-10" value="&lt;b&gt;&lt;font style=&quot;font-size: 15px;&quot;&gt;AR功能开发&lt;/font&gt;&lt;/b&gt;" style="rounded=0;whiteSpace=wrap;html=1;strokeWidth=3;" vertex="1" parent="1">
          <mxGeometry x="280" y="440" width="120" height="40" as="geometry" />
        </mxCell>
        <mxCell id="Kj1l3_5Fq6EtQ0LLu0_2-11" value="" style="endArrow=classic;html=1;rounded=0;exitX=0.5;exitY=1;exitDx=0;exitDy=0;strokeWidth=3;" edge="1" parent="1" source="Kj1l3_5Fq6EtQ0LLu0_2-10">
          <mxGeometry width="50" height="50" relative="1" as="geometry">
            <mxPoint x="330" y="530" as="sourcePoint" />
            <mxPoint x="340" y="520" as="targetPoint" />
          </mxGeometry>
        </mxCell>
        <mxCell id="Kj1l3_5Fq6EtQ0LLu0_2-12" value="&lt;font style=&quot;font-size: 15px;&quot;&gt;&lt;b&gt;云端管理平台开发&lt;/b&gt;&lt;/font&gt;" style="rounded=0;whiteSpace=wrap;html=1;strokeWidth=3;" vertex="1" parent="1">
          <mxGeometry x="275" y="520" width="130" height="40" as="geometry" />
        </mxCell>
        <mxCell id="Kj1l3_5Fq6EtQ0LLu0_2-13" value="" style="endArrow=classic;html=1;rounded=0;exitX=0.5;exitY=1;exitDx=0;exitDy=0;exitPerimeter=0;strokeWidth=3;" edge="1" parent="1" source="Kj1l3_5Fq6EtQ0LLu0_2-12">
          <mxGeometry width="50" height="50" relative="1" as="geometry">
            <mxPoint x="340" y="570" as="sourcePoint" />
            <mxPoint x="340" y="600" as="targetPoint" />
          </mxGeometry>
        </mxCell>
        <mxCell id="Kj1l3_5Fq6EtQ0LLu0_2-14" value="&lt;font style=&quot;font-size: 15px;&quot;&gt;&lt;b&gt;数字化社区开发&lt;/b&gt;&lt;/font&gt;" style="rounded=0;whiteSpace=wrap;html=1;strokeWidth=3;" vertex="1" parent="1">
          <mxGeometry x="280" y="600" width="120" height="40" as="geometry" />
        </mxCell>
        <mxCell id="Kj1l3_5Fq6EtQ0LLu0_2-15" value="" style="endArrow=classic;html=1;rounded=0;exitX=0.5;exitY=1;exitDx=0;exitDy=0;strokeWidth=3;" edge="1" parent="1" source="Kj1l3_5Fq6EtQ0LLu0_2-14">
          <mxGeometry width="50" height="50" relative="1" as="geometry">
            <mxPoint x="330" y="610" as="sourcePoint" />
            <mxPoint x="340" y="680" as="targetPoint" />
          </mxGeometry>
        </mxCell>
        <mxCell id="Kj1l3_5Fq6EtQ0LLu0_2-16" value="&lt;b&gt;&lt;font style=&quot;font-size: 15px;&quot;&gt;整合与优化&lt;/font&gt;&lt;/b&gt;" style="rounded=0;whiteSpace=wrap;html=1;strokeWidth=3;" vertex="1" parent="1">
          <mxGeometry x="280" y="680" width="120" height="40" as="geometry" />
        </mxCell>
        <mxCell id="Kj1l3_5Fq6EtQ0LLu0_2-27" value="" style="shape=curlyBracket;whiteSpace=wrap;html=1;rounded=1;labelPosition=left;verticalLabelPosition=middle;align=right;verticalAlign=middle;strokeWidth=3;" vertex="1" parent="1">
          <mxGeometry x="400" y="50" width="20" height="230" as="geometry" />
        </mxCell>
        <mxCell id="Kj1l3_5Fq6EtQ0LLu0_2-34" value="&lt;font style=&quot;font-size: 15px;&quot;&gt;&lt;b&gt;1.使用微信开发者工具搭建小程序。&lt;/b&gt;&lt;/font&gt;" style="rounded=1;whiteSpace=wrap;html=1;strokeWidth=3;" vertex="1" parent="1">
          <mxGeometry x="430" y="50" width="250" height="40" as="geometry" />
        </mxCell>
        <mxCell id="Kj1l3_5Fq6EtQ0LLu0_2-37" value="&lt;font style=&quot;font-size: 15px;&quot;&gt;&lt;b&gt;2.编写 &lt;span data-end=&quot;226&quot; data-start=&quot;218&quot;&gt;WXML&lt;/span&gt; 定义页面结构，&lt;span data-end=&quot;242&quot; data-start=&quot;234&quot;&gt;WXSS&lt;/span&gt; 控制样式，&lt;span data-end=&quot;262&quot; data-start=&quot;248&quot;&gt;JavaScript&lt;/span&gt; 实现业务逻辑，&lt;span data-end=&quot;278&quot; data-start=&quot;270&quot;&gt;JSON&lt;/span&gt; 配置页面信息。&lt;/b&gt;&lt;/font&gt;" style="rounded=1;whiteSpace=wrap;html=1;strokeWidth=3;" vertex="1" parent="1">
          <mxGeometry x="430" y="100" width="340" height="60" as="geometry" />
        </mxCell>
        <mxCell id="Kj1l3_5Fq6EtQ0LLu0_2-39" value="&lt;b&gt;&lt;font style=&quot;font-size: 15px;&quot;&gt;3.使用微信小程序自带的 &lt;span data-end=&quot;323&quot; data-start=&quot;300&quot;&gt;扫码API (wx.scanCode)&lt;/span&gt; 实现二维码/条码扫描功能。&lt;/font&gt;&lt;/b&gt;" style="rounded=1;whiteSpace=wrap;html=1;strokeWidth=3;" vertex="1" parent="1">
          <mxGeometry x="430" y="170" width="340" height="60" as="geometry" />
        </mxCell>
      </root>
    </mxGraphModel>
  </diagram>
</mxfile>
